<?xml version="1.0" encoding="utf-8"?>
<!-- Generator: Adobe Illustrator 25.4.1, SVG Export Plug-In . SVG Version: 6.00 Build 0)  -->
<svg version="1.1" id="Laag_1" xmlns="http://www.w3.org/2000/svg" xmlns:xlink="http://www.w3.org/1999/xlink" x="0px" y="0px"
	 viewBox="0 0 168.35 195.04" style="enable-background:new 0 0 168.35 195.04;" xml:space="preserve">
<style type="text/css">
	.st0{fill:#FFFFFF;stroke:#000000;stroke-width:6;stroke-miterlimit:10;}
	.st1{fill:none;stroke:#000000;stroke-width:6;stroke-miterlimit:10;}
</style>
<path class="st0" d="M146,188.47H23.51c-6.6,0-12-5.4-12-12V53.99c0-6.6,5.4-12,12-12c13.7,0,27.4,0,41.11,0
	c27.13,0,54.25,0,81.38,0c0.81,0,5.05,0.1,8.47,3.52c2.18,2.18,3.53,5.18,3.53,8.48v122.48C158,183.07,152.6,188.47,146,188.47z"/>
<path class="st0" d="M78.7,20.89"/>
<path class="st0" d="M-62.71-18.17"/>
<path class="st0" d="M-11.93-22.86"/>
<path class="st1" d="M49.89,41.99c0,0,34.86-79.1,69.73,0"/>
</svg>
